<svg xmlns="http://www.w3.org/2000/svg" version="1.1" xmlns:xlink="http://www.w3.org/1999/xlink" width="111.31999" height="108.15975"><svg id="SvgjsSvg1025" version="1.1" viewBox="0 0 111.31999 108.15975" width="111.31999" height="108.15975" xmlns="http://www.w3.org/2000/svg" xmlns:svg="http://www.w3.org/2000/svg">
  <defs id="SvgjsDefs1024">
    <style id="SvgjsStyle1023">.st0{fill:#231f20}</style>
  </defs>
  <g id="SvgjsG1022" transform="translate(-423.89,-250.05513)">
    <path d="m 473.89,258.93 18.28,41.5 14.28,-34.63 c -9.37,-6.04 -20.96,-8.6 -32.56,-6.88 z" id="SvgjsPath1021"></path>
    <path d="m 525.88,294.7 a 43.49,43.49 0 0 0 -2.98,-9.67 43.653,43.653 0 0 0 -14.35,-17.78 l -17.68,42.87 z" id="SvgjsPath1020"></path>
    <path d="m 517.86,329.47 c 6.72,-9.38 9.84,-20.89 8.4,-32.27 l -43.48,19.15 35.08,13.13 z" id="SvgjsPath1019"></path>
    <path d="m 433.22,313.54 c 0.6,3.27 1.59,6.51 2.98,9.67 3.25,7.37 8.3,13.41 14.46,17.87 l 17.58,-42.96 z" id="SvgjsPath1018"></path>
    <path d="m 441.03,279.06 c -6.58,9.32 -9.62,20.72 -8.2,31.99 l 43.37,-19.1 z" id="SvgjsPath1017"></path>
    <path d="m 487.79,348.86 c 3.38,-0.69 6.75,-1.75 10.05,-3.2 7.48,-3.3 13.72,-8.21 18.46,-14.11 l -43.26,-16.19 14.76,33.51 z" id="SvgjsPath1016"></path>
    <path d="m 485.21,349.32 -18.26,-41.46 -14.18,34.66 c 9.35,5.99 20.9,8.52 32.44,6.81 z" id="SvgjsPath1015"></path>
    <path d="m 471.31,259.38 c -3.38,0.69 -6.75,1.75 -10.05,3.2 -7.6,3.35 -13.91,8.37 -18.67,14.39 l 43.49,15.94 z" id="SvgjsPath1014"></path>
    <path d="m 518.37,264.2 c -5.16,-4.71 -11.17,-8.34 -17.86,-10.77 -6.69,-2.44 -13.73,-3.56 -20.93,-3.35 -7.45,0.22 -14.74,1.88 -21.66,4.93 -6.92,3.05 -13.06,7.3 -18.26,12.65 A 55.93,55.93 0 0 0 428,285.36 c -2.72,6.58 -4.1,13.46 -4.11,20.45 0,7.24 1.47,14.27 4.39,20.9 a 51.46,51.46 0 0 0 12.45,17.35 c 5.16,4.71 11.17,8.34 17.86,10.78 6.69,2.44 13.73,3.56 20.93,3.35 7.45,-0.22 14.74,-1.88 21.66,-4.93 6.92,-3.05 13.06,-7.3 18.26,-12.65 a 55.93,55.93 0 0 0 11.66,-17.7 c 2.72,-6.58 4.1,-13.46 4.11,-20.45 0,-7.24 -1.47,-14.27 -4.39,-20.9 a 51.46,51.46 0 0 0 -12.45,-17.35 z m -19.16,84.58 c -25.74,11.34 -55.41,0.53 -66.27,-24.13 -10.86,-24.66 1.2,-53.84 26.94,-65.18 25.74,-11.34 55.41,-0.53 66.27,24.13 10.86,24.66 -1.2,53.84 -26.94,65.18 z" id="SvgjsPath1013"></path>
  </g>
</svg><style>@media (prefers-color-scheme: light) { :root { filter: none; } }
@media (prefers-color-scheme: dark) { :root { filter: invert(100%); } }
</style></svg>