<?xml version="1.0" encoding="UTF-8" standalone="no"?>
<svg
   id="Layer_1"
   version="1.1"
   viewBox="0 0 334.98001 196.92"
   width="334.98001"
   height="196.92"
   xmlns="http://www.w3.org/2000/svg"
   xmlns:svg="http://www.w3.org/2000/svg">
  <defs
     id="defs1">
    <style
       id="style1">.st0{fill:#231f20}</style>
  </defs>
  <g
     id="g9"
     transform="translate(-312.06,-199.92)">
    <path
       d="m 473.89,258.93 18.28,41.5 14.28,-34.63 c -9.37,-6.04 -20.96,-8.6 -32.56,-6.88 z"
       id="path1" />
    <path
       d="m 525.88,294.7 a 43.49,43.49 0 0 0 -2.98,-9.67 43.653,43.653 0 0 0 -14.35,-17.78 l -17.68,42.87 z"
       id="path2" />
    <path
       d="m 517.86,329.47 c 6.72,-9.38 9.84,-20.89 8.4,-32.27 l -43.48,19.15 35.08,13.13 z"
       id="path3" />
    <path
       d="m 433.22,313.54 c 0.6,3.27 1.59,6.51 2.98,9.67 3.25,7.37 8.3,13.41 14.46,17.87 l 17.58,-42.96 z"
       id="path4" />
    <path
       d="m 441.03,279.06 c -6.58,9.32 -9.62,20.72 -8.2,31.99 l 43.37,-19.1 z"
       id="path5" />
    <path
       d="m 487.79,348.86 c 3.38,-0.69 6.75,-1.75 10.05,-3.2 7.48,-3.3 13.72,-8.21 18.46,-14.11 l -43.26,-16.19 14.76,33.51 z"
       id="path6" />
    <path
       d="m 485.21,349.32 -18.26,-41.46 -14.18,34.66 c 9.35,5.99 20.9,8.52 32.44,6.81 z"
       id="path7" />
    <path
       d="m 471.31,259.38 c -3.38,0.69 -6.75,1.75 -10.05,3.2 -7.6,3.35 -13.91,8.37 -18.67,14.39 l 43.49,15.94 z"
       id="path8" />
    <path
       d="m 518.37,264.2 c -5.16,-4.71 -11.17,-8.34 -17.86,-10.77 -6.69,-2.44 -13.73,-3.56 -20.93,-3.35 -7.45,0.22 -14.74,1.88 -21.66,4.93 -6.92,3.05 -13.06,7.3 -18.26,12.65 A 55.93,55.93 0 0 0 428,285.36 c -2.72,6.58 -4.1,13.46 -4.11,20.45 0,7.24 1.47,14.27 4.39,20.9 a 51.46,51.46 0 0 0 12.45,17.35 c 5.16,4.71 11.17,8.34 17.86,10.78 6.69,2.44 13.73,3.56 20.93,3.35 7.45,-0.22 14.74,-1.88 21.66,-4.93 6.92,-3.05 13.06,-7.3 18.26,-12.65 a 55.93,55.93 0 0 0 11.66,-17.7 c 2.72,-6.58 4.1,-13.46 4.11,-20.45 0,-7.24 -1.47,-14.27 -4.39,-20.9 a 51.46,51.46 0 0 0 -12.45,-17.35 z m -19.16,84.58 c -25.74,11.34 -55.41,0.53 -66.27,-24.13 -10.86,-24.66 1.2,-53.84 26.94,-65.18 25.74,-11.34 55.41,-0.53 66.27,24.13 10.86,24.66 -1.2,53.84 -26.94,65.18 z"
       id="path9" />
  </g>
  <g
     id="g19"
     transform="translate(-330.51,-199.92)">
    <path
       d="m 353.26,237.35 h -7.28 l -15.47,-37.38 h 7.87 l 11.22,28.98 11.27,-28.98 h 7.87 l -15.47,37.38 z"
       id="path10" />
    <path
       d="m 373.1,237.19 v -37.22 h 6.96 v 37.22 z"
       id="path11" />
    <path
       d="m 414.41,237.19 h -27.86 v -37.22 h 27.86 v 6.81 h -20.9 v 8.56 h 20.15 v 6.54 h -20.15 v 8.4 h 20.9 z"
       id="path12" />
    <path
       d="m 460.56,237.19 h -5.96 l -4.62,-11.7 -3.93,-11.75 -3.88,11.86 -4.52,11.59 h -5.96 l -13.67,-37.22 h 7.87 l 8.77,26.85 9.04,-26.85 h 4.57 l 9.3,26.85 8.51,-26.85 h 7.87 l -13.4,37.22 z"
       id="path13" />
    <path
       d="m 478.27,237.19 v -37.17 h 26.74 v 6.75 h -19.73 v 10.16 h 18.66 v 6.49 h -18.66 v 13.77 h -7.02 z"
       id="path14" />
    <path
       d="m 510.44,237.19 v -37.22 h 6.96 v 37.22 z"
       id="path15" />
    <path
       d="m 548.46,199.92 h 7.02 v 37.27 h -4.36 v 0.05 l -19.57,-25.15 v 25.1 h -7.02 v -37.22 h 5.69 l 18.24,23.08 z"
       id="path16" />
    <path
       d="m 594.67,218.26 c 0.16,9.41 -5.58,18.93 -18.61,18.93 h -14.62 v -37.22 h 14.62 c 12.76,0 18.45,9.09 18.61,18.29 z m -26.27,12.18 h 7.66 c 8.45,0 11.8,-6.17 11.65,-12.23 -0.16,-5.8 -3.56,-11.59 -11.65,-11.59 h -7.66 z"
       id="path17" />
    <path
       d="m 627.05,237.19 h -27.86 v -37.22 h 27.86 v 6.81 h -20.9 v 8.56 h 20.15 v 6.54 h -20.15 v 8.4 h 20.9 z"
       id="path18" />
    <path
       d="m 665.49,237.19 h -8.35 l -10.85,-12.44 h -6.75 v 12.44 h -7.02 v -37.27 c 5.9,0 11.8,0.05 17.71,0.05 8.77,0.05 13.4,5.9 13.4,12.33 0,5.11 -2.34,10.26 -9.41,11.7 l 11.27,12.71 z m -25.94,-30.68 v 11.91 h 10.69 c 4.46,0 6.38,-2.98 6.38,-5.95 0,-2.97 -1.97,-5.96 -6.38,-5.96 z"
       id="path19" />
  </g>
  <g
     id="g22"
     transform="translate(-313.01,-199.92)">
    <g
       id="g20">
      <path
         id="line19"
         d="m 565,381 h 54" />
      <path
         class="st0"
         id="rect19"
         d="m 565,379 h 54 v 4 h -54 z" />
    </g>
    <g
       id="g21">
      <path
         id="line20"
         d="m 342,381 h 54" />
      <path
         class="st0"
         id="rect20"
         d="m 342,379 h 54 v 4 h -54 z" />
    </g>
  </g>
  <g
     id="g26"
     transform="translate(-312.505,-199.92)">
    <path
       d="m 423.84,389.47 h -6.51 v 6.77 h -4.34 v -23.02 c 3.62,0 7.23,-0.03 10.85,-0.03 11.25,0 11.28,16.28 0,16.28 z m -6.51,-3.97 h 6.51 c 5.56,0 5.52,-8.15 0,-8.15 h -6.51 z"
       id="path22" />
    <path
       d="m 462.71,396.25 h -5.16 l -6.71,-7.69 h -4.18 v 7.69 h -4.34 V 373.2 c 3.65,0 7.3,0.03 10.95,0.03 5.43,0.03 8.29,3.65 8.29,7.63 0,3.16 -1.45,6.35 -5.82,7.23 l 6.97,7.86 z m -16.05,-18.97 v 7.37 h 6.61 c 2.76,0 3.95,-1.84 3.95,-3.68 0,-1.84 -1.22,-3.68 -3.95,-3.68 h -6.61 z"
       id="path23" />
    <path
       d="m 488.71,396.25 h -17.23 v -23.02 h 17.23 v 4.21 h -12.92 v 5.29 h 12.46 v 4.04 h -12.46 v 5.2 h 12.92 v 4.27 z"
       id="path24" />
    <path
       d="m 514.03,378.79 c -0.79,-1.32 -2.96,-2.56 -5.46,-2.56 -3.22,0 -4.77,1.35 -4.77,3.06 0,2.01 2.37,2.57 5.13,2.89 4.8,0.59 9.27,1.84 9.27,7.33 0,5.13 -4.54,7.33 -9.66,7.33 -4.7,0 -8.32,-1.45 -10.03,-5.66 l 3.62,-1.87 c 1.02,2.53 3.68,3.65 6.48,3.65 2.8,0 5.29,-0.95 5.29,-3.45 0,-2.17 -2.27,-3.06 -5.33,-3.39 -4.7,-0.56 -9.04,-1.81 -9.04,-6.97 0,-4.73 4.67,-6.67 8.91,-6.71 3.58,0 7.3,1.02 9.04,4.57 z"
       id="path25" />
    <path
       d="m 542.83,378.79 c -0.79,-1.32 -2.96,-2.56 -5.46,-2.56 -3.22,0 -4.77,1.35 -4.77,3.06 0,2.01 2.37,2.57 5.13,2.89 4.8,0.59 9.27,1.84 9.27,7.33 0,5.13 -4.54,7.33 -9.67,7.33 -4.7,0 -8.32,-1.45 -10.03,-5.66 l 3.62,-1.87 c 1.02,2.53 3.68,3.65 6.48,3.65 2.8,0 5.29,-0.95 5.29,-3.45 0,-2.17 -2.27,-3.06 -5.33,-3.39 -4.7,-0.56 -9.04,-1.81 -9.04,-6.97 0,-4.73 4.67,-6.67 8.91,-6.71 3.59,0 7.3,1.02 9.04,4.57 l -3.45,1.78 z"
       id="path26" />
  </g>
</svg>
